<svg width="102" height="102" viewBox="0 0 102 102" fill="none" xmlns="http://www.w3.org/2000/svg">
<path d="M77.2083 80.0417H24.7917C21.6608 80.0417 19.125 77.5058 19.125 74.375V31.875H82.875V74.375C82.875 77.5058 80.3392 80.0417 77.2083 80.0417Z" fill="#F3F3F1"/>
<path d="M82.875 31.8752H19.125V27.6252C19.125 24.4943 21.6608 21.9585 24.7917 21.9585H77.2083C80.3392 21.9585 82.875 24.4943 82.875 27.6252V31.8752Z" fill="#4E7FB9"/>
<path d="M60.8504 47.547C60.6634 47.547 60.4905 47.5895 60.3064 47.6009C58.5299 44.215 55.0222 41.8804 50.9337 41.8804C45.7628 41.8804 41.4647 45.5779 40.5127 50.471C40.2123 50.4285 39.912 50.3804 39.6003 50.3804C36.0785 50.3804 33.2253 53.2335 33.2253 56.7554C33.2253 60.2772 36.0785 63.1304 39.6003 63.1304H60.8504C65.1542 63.1304 68.642 59.6425 68.642 55.3387C68.642 51.0349 65.1542 47.547 60.8504 47.547V47.547Z" fill="#4E7FB9"/>
<path d="M39.6667 56.6665C39.6667 53.1447 42.5199 50.2915 46.0417 50.2915C46.3534 50.2915 46.6537 50.3397 46.9541 50.3822C47.6992 46.5373 50.5269 43.4632 54.2046 42.3072C53.1959 41.9813 52.1221 41.7915 51.0001 41.7915C45.8292 41.7915 41.5311 45.489 40.5791 50.3822C40.2787 50.3397 39.9784 50.2915 39.6667 50.2915C36.1449 50.2915 33.2917 53.1447 33.2917 56.6665C33.2917 60.1883 36.1449 63.0415 39.6667 63.0415H46.0417C42.5199 63.0415 39.6667 60.1883 39.6667 56.6665Z" fill="#33557E"/>
<path d="M26.2083 74.375V31.875H19.125V74.375C19.125 77.5058 21.6608 80.0417 24.7917 80.0417H31.875C28.7442 80.0417 26.2083 77.5058 26.2083 74.375Z" fill="#D5DBE1"/>
<path d="M31.1667 21.9585H24.7917C21.6608 21.9585 19.125 24.4943 19.125 27.6252V31.8752H25.5V27.6252C25.5 24.4943 28.0358 21.9585 31.1667 21.9585Z" fill="#33557E"/>
<path d="M38.9612 65.1073C34.5186 64.5406 31.1667 60.9196 31.1667 56.6809C31.1667 52.4876 34.3967 48.9913 38.6354 48.2858C40.2192 43.2453 45.2456 39.6243 51.0001 39.6243C55.5391 39.6243 59.7494 41.8796 62.0557 45.4609C67.0622 46.2684 70.8334 50.3768 70.8334 55.2671C70.8334 59.6503 67.7054 63.5744 63.2231 64.8098L62.0954 60.7128C64.7389 59.9846 66.5834 57.7463 66.5834 55.2699C66.5834 52.2609 63.9739 49.7619 60.6391 49.5806C59.8797 49.5381 59.2026 49.0961 58.8597 48.4189C57.4601 45.6593 54.3746 43.8743 51.0029 43.8743C46.7132 43.8743 43.0356 46.7671 42.4491 50.6034C42.2904 51.6404 41.3979 52.4083 40.3496 52.4083C37.5701 52.4083 35.4196 54.3264 35.4196 56.6838C35.4196 58.7889 37.1762 60.5966 39.5024 60.8941L38.9612 65.1073Z" fill="black"/>
<path d="M49.1086 57.3735H53.3586V75.7902H49.1086V57.3735Z" fill="black"/>
<path d="M55.0585 66.7235L51.225 61.6178L47.4 66.7178L44 64.1678L49.525 56.8011C50.3268 55.7358 52.1203 55.7301 52.925 56.8011L58.4585 64.1763L55.0585 66.7235Z" fill="black"/>
<path d="M77.1419 82.2552H24.7253C20.4271 82.2552 16.9336 78.7617 16.9336 74.4635V27.7135C16.9336 23.4154 20.4271 19.9219 24.7253 19.9219H77.1419C81.4401 19.9219 84.9336 23.4154 84.9336 27.7135V74.4635C84.9336 78.7617 81.4401 82.2552 77.1419 82.2552ZM24.7253 24.1719C22.7731 24.1719 21.1836 25.7614 21.1836 27.7135V74.4635C21.1836 76.4157 22.7731 78.0052 24.7253 78.0052H77.1419C79.0941 78.0052 80.6836 76.4157 80.6836 74.4635V27.7135C80.6836 25.7614 79.0941 24.1719 77.1419 24.1719H24.7253Z" fill="black"/>
<path d="M19.125 29.75H82.875V34H19.125V29.75Z" fill="black"/>
<path d="M6.15847 78H93.1585L89.9999 82H9.1585L6.15847 78Z" fill="black"/>
</svg>
