<svg width="100" height="100" viewBox="0 0 100 100" fill="none" xmlns="http://www.w3.org/2000/svg">
<path d="M48.9744 46.5116C56.464 46.5116 62.5356 40.4401 62.5356 32.9505C62.5356 25.4609 56.464 19.3894 48.9744 19.3894C41.4848 19.3894 35.4133 25.4609 35.4133 32.9505C35.4133 40.4401 41.4848 46.5116 48.9744 46.5116Z" fill="#F3F3F1"/>
<path d="M42.5927 32.9505C42.5927 26.7124 46.8302 21.5113 52.5642 19.9318C51.4123 19.6128 50.2253 19.3894 48.9744 19.3894C41.4855 19.3894 35.4133 25.4616 35.4133 32.9505C35.4133 40.4394 41.4855 46.5116 48.9744 46.5116C50.2253 46.5116 51.4123 46.2883 52.5642 45.9692C46.8302 44.3897 42.5927 39.1886 42.5927 32.9505Z" fill="#D5DBE1"/>
<path d="M66.1731 57.6792H62.5355H39.0509H35.4133C28.3647 57.6792 22.6499 63.394 22.6499 70.4426V81.6106H49.4211H52.1653H78.9365V70.4426C78.9365 63.394 73.2217 57.6792 66.1731 57.6792Z" fill="#F3F3F1"/>
<path d="M42.5927 57.6792H39.0509H35.4133C28.3647 57.6792 22.6499 63.394 22.6499 70.4426V81.6106H29.8293V70.4426C29.8293 63.394 35.5441 57.6792 42.5927 57.6792Z" fill="#D5DBE1"/>
<path d="M48.9743 48.9043C40.1771 48.9043 33.02 41.7473 33.02 32.9501C33.02 24.1529 40.1771 16.9958 48.9743 16.9958C57.7714 16.9958 64.9285 24.1529 64.9285 32.9501C64.9285 41.7473 57.7714 48.9043 48.9743 48.9043ZM48.9743 21.7821C42.8159 21.7821 37.8063 26.7918 37.8063 32.9501C37.8063 39.1084 42.8159 44.1181 48.9743 44.1181C55.1326 44.1181 60.1422 39.1084 60.1422 32.9501C60.1422 26.7918 55.1326 21.7821 48.9743 21.7821Z" fill="#303030"/>
<path d="M52.1648 84.0038H22.6495C21.3285 84.0038 20.2563 82.9317 20.2563 81.6106V70.4427C20.2563 62.0858 27.056 55.2861 35.4129 55.2861H62.5351V60.0724H35.4129C29.6949 60.0724 25.0426 64.7247 25.0426 70.4427V79.2175H52.1648V84.0038Z" fill="#303030"/>
<path d="M47.0913 84.0038H76.6066C77.9276 84.0038 78.9998 82.9317 78.9998 81.6106V70.4427C78.9998 62.0858 72.2001 55.2861 63.8432 55.2861H36.721V60.0724H63.8432C69.5612 60.0724 74.2135 64.7247 74.2135 70.4427V79.2175H47.0913V84.0038Z" fill="#303030"/>
</svg>
