<svg width="124" height="124" viewBox="0 0 124 124" fill="none" xmlns="http://www.w3.org/2000/svg">
<path d="M100.75 43.9167V49.0833H23.25V43.9167L62 23.25L100.75 43.9167Z" fill="#4E7FB9"/>
<path d="M31 46.5L68.2964 26.6083L62 23.25L23.25 43.9167V49.0833H31V46.5Z" fill="#33557E"/>
<path d="M33.5833 49.0835H90.4166V100.75H33.5833V49.0835Z" fill="#F3F3F1"/>
<path d="M33.5833 49.0835H41.3333V100.75H33.5833V49.0835Z" fill="#D5DBE1"/>
<path d="M56 49H64V103H56V49Z" fill="#D5DBE1"/>
<path d="M62 47C58.1407 47 55 44.0837 55 40.5C55 36.9163 58.1407 34 62 34C65.8593 34 69 36.9163 69 40.5C69 44.0837 65.8593 47 62 47ZM62 38.3333C60.7167 38.3333 59.6667 39.3083 59.6667 40.5C59.6667 41.6917 60.7167 42.6667 62 42.6667C63.2833 42.6667 64.3333 41.6917 64.3333 40.5C64.3333 39.3083 63.2833 38.3333 62 38.3333Z" fill="#303030"/>
<path d="M101.855 53.8434H24.1446C22.7147 53.8434 21.5542 52.6919 21.5542 51.273V46.1323C21.5542 45.183 22.0792 44.3125 22.9254 43.8636L61.7808 23.3007C62.5441 22.8998 63.4524 22.8998 64.2157 23.3007L103.071 43.8636C103.921 44.3125 104.446 45.183 104.446 46.1323V51.273C104.446 52.6919 103.285 53.8434 101.855 53.8434V53.8434ZM26.7349 48.7027H99.265V47.6745L63 28.4826L26.7349 47.6745V48.7027Z" fill="#303030"/>
<path d="M21 98H103L99.9243 103H25.4554L23.1976 100.5L21 98Z" fill="#303030"/>
<path d="M32.4092 51.032H37.5077V100.831H32.4092V51.032Z" fill="#303030"/>
<path d="M54.1575 51.1096H59.1763V98.2632H54.1575V51.1096Z" fill="#303030"/>
<path d="M89 51H94V103L89 100.11V51Z" fill="#303030"/>
<path d="M68 51H73V100.236L68 103V51Z" fill="#303030"/>
</svg>
