<svg width="96" height="96" viewBox="0 0 96 96" fill="none" xmlns="http://www.w3.org/2000/svg">
<path d="M32 78C39.732 78 46 71.732 46 64C46 56.268 39.732 50 32 50C24.268 50 18 56.268 18 64C18 71.732 24.268 78 32 78Z" fill="#4E7FB9"/>
<path d="M69.3333 24.6667C71.1743 24.6667 72.6667 23.1743 72.6667 21.3333C72.6667 19.4924 71.1743 18 69.3333 18C67.4924 18 66 19.4924 66 21.3333C66 23.1743 67.4924 24.6667 69.3333 24.6667Z" fill="#F3F3F1"/>
<path d="M60.6667 38.0002V35.7788C60.6667 33.3255 62.8827 31.3335 65.6187 31.3335H73.0481C75.7841 31.3335 78.0001 33.3228 78.0001 35.7788V38.0002H60.6667Z" fill="#F3F3F1"/>
<path d="M24 64C24 57.3013 28.712 51.7147 35 50.3387C34.032 50.128 33.032 50 32 50C24.2693 50 18 56.2667 18 64C18 71.7307 24.2693 78 32 78C33.032 78 34.032 77.872 35 77.6587C28.712 76.2854 24 70.6987 24 64Z" fill="#33557E"/>
<path d="M72 21.3333C72 20.8267 72.1307 20.36 72.3333 19.9307C71.8 18.7973 70.6667 18 69.3333 18C67.4933 18 66 19.4933 66 21.3333C66 23.1733 67.4933 24.6667 69.3333 24.6667C70.6667 24.6667 71.8 23.8693 72.3333 22.736C72.1307 22.3067 72 21.84 72 21.3333Z" fill="#D5DBE1"/>
<path d="M71.6187 31.3335H65.6187C62.8827 31.3335 60.6667 33.3228 60.6667 35.7788V38.0002H66.6667V35.7788C66.6667 33.3228 68.8827 31.3335 71.6187 31.3335Z" fill="#D5DBE1"/>
<path d="M32 80C23.176 80 16 72.824 16 64C16 55.176 23.176 48 32 48C40.824 48 48 55.176 48 64C48 72.824 40.824 80 32 80ZM32 52C25.384 52 20 57.384 20 64C20 70.616 25.384 76 32 76C38.616 76 44 70.616 44 64C44 57.384 38.616 52 32 52Z" fill="#303030"/>
<path d="M69.3333 26.6667C66.392 26.6667 64 24.2747 64 21.3333C64 18.392 66.392 16 69.3333 16C72.2747 16 74.6667 18.392 74.6667 21.3333C74.6667 24.2747 72.2747 26.6667 69.3333 26.6667ZM69.3333 20C68.5973 20 68 20.5973 68 21.3333C68 22.0693 68.5973 22.6667 69.3333 22.6667C70.0693 22.6667 70.6667 22.0693 70.6667 21.3333C70.6667 20.5973 70.0693 20 69.3333 20Z" fill="#303030"/>
<path d="M79.9998 39.9999H75.9998V35.7786C75.9998 34.4319 74.6745 33.3333 73.0478 33.3333H65.6185C63.9918 33.3333 62.6665 34.4293 62.6665 35.7786V39.9999H58.6665V35.7786C58.6665 32.2239 61.7838 29.3333 65.6185 29.3333H73.0478C76.8825 29.3333 79.9998 32.2239 79.9998 35.7786V39.9999Z" fill="#303030"/>
<path d="M59.1146 80.8215L53.8133 74.6375C53.1706 73.8881 53.1706 72.7841 53.8133 72.0321L59.1146 65.8481L62.1519 68.4508L57.9653 73.3361L62.1519 78.2215L59.1146 80.8215Z" fill="#303030"/>
<path d="M64.6667 75.3334H54.6667V71.3334H64.6667C66.5041 71.3334 68.0001 69.8374 68.0001 68.0001V48.6667H72.0001V68.0001C72.0001 72.0454 68.7121 75.3334 64.6667 75.3334Z" fill="#303030"/>
<path d="M44.8852 30.1547L41.8479 27.552L46.0346 22.6667L41.8479 17.7814L44.8852 15.1787L50.1866 21.3627C50.8292 22.112 50.8292 23.216 50.1866 23.968L44.8852 30.1547Z" fill="#303030"/>
<path d="M28 40.0001H24V28.0001C24 23.9547 27.288 20.6667 31.3333 20.6667H49.3333V24.6667H31.3333C29.496 24.6667 28 26.1627 28 28.0001V40.0001Z" fill="#303030"/>
<path d="M26.3951 64.074C26.2963 63.9368 26.2058 63.7396 26.1235 63.4823C26.0412 63.2251 26 62.9507 26 62.6592C26 62.1104 26.1152 61.7245 26.3457 61.5016C26.5926 61.2615 26.8889 61.1415 27.2346 61.1415H37.6049C37.6872 61.2958 37.7695 61.5016 37.8519 61.7588C37.9506 62.0161 38 62.2905 38 62.582C38 63.1136 37.8765 63.4995 37.6296 63.7396C37.3992 63.9625 37.1111 64.074 36.7654 64.074H35.2593C35.177 64.9657 34.8642 65.746 34.321 66.4148C33.7778 67.0665 32.9959 67.5381 31.9753 67.8296L35.5556 70.3505C35.5556 71.1222 35.3663 71.7567 34.9877 72.254C34.6255 72.7513 34.0741 73 33.3333 73C32.9053 73 32.5103 72.88 32.1481 72.6399C31.8025 72.3998 31.465 72.1254 31.1358 71.8167L27.0123 67.881C26.8971 67.6238 26.8395 67.3237 26.8395 66.9807C26.8395 66.2947 27.1029 65.7803 27.6296 65.4373H29.0864C29.6132 65.4373 30.0247 65.3173 30.321 65.0772C30.6337 64.8199 30.856 64.4855 30.9877 64.074H26.3951ZM26.3951 59.9325C26.2963 59.7781 26.2058 59.5723 26.1235 59.3151C26.0412 59.0579 26 58.7835 26 58.492C26 57.9603 26.1152 57.5831 26.3457 57.3601C26.5926 57.12 26.8889 57 27.2346 57H37.6049C37.6872 57.1372 37.7695 57.343 37.8519 57.6174C37.9506 57.8746 38 58.1404 38 58.4148C38 58.9636 37.8765 59.358 37.6296 59.5981C37.3992 59.821 37.1111 59.9325 36.7654 59.9325H26.3951Z" fill="#DCECFF"/>
</svg>
