<svg width="126" height="24" viewBox="0 0 126 24" fill="none" xmlns="http://www.w3.org/2000/svg">
<g id="Group 389">
<g id="Group 2">
<g id="ippo">
<path d="M33.8841 5.96611C33.4526 5.96611 33.0785 5.82117 32.7616 5.53129C32.4448 5.2414 32.2863 4.88748 32.2863 4.46951C32.2863 4.05153 32.4448 3.69761 32.7616 3.40772C33.0785 3.11784 33.4526 2.9729 33.8841 2.9729C34.3155 2.9729 34.6863 3.11784 34.9964 3.40772C35.3133 3.69761 35.4717 4.05153 35.4717 4.46951C35.4717 4.88748 35.3133 5.2414 34.9964 5.53129C34.6863 5.82117 34.3155 5.96611 33.8841 5.96611ZM34.7436 13.3784C34.7436 13.7626 34.7537 14.3795 34.7739 15.2289C34.8009 16.0783 34.8144 16.6952 34.8144 17.0794C34.8144 17.4704 34.6829 17.794 34.42 18.0502C34.1571 18.2996 33.8234 18.4243 33.4189 18.4243C33.0144 18.4243 32.6807 18.2996 32.4178 18.0502C32.1549 17.794 32.0234 17.4704 32.0234 17.0794C32.0234 16.6952 32.0099 16.0783 31.983 15.2289C31.9627 14.3795 31.9526 13.7626 31.9526 13.3784C31.9526 12.7784 31.9863 12.0267 32.0538 11.1233C32.1212 10.22 32.1549 9.4683 32.1549 8.86831C32.1549 8.47731 32.2863 8.15709 32.5493 7.90765C32.8122 7.65148 33.1459 7.52339 33.5504 7.52339C33.9549 7.52339 34.2886 7.65148 34.5515 7.90765C34.8144 8.15709 34.9458 8.47731 34.9458 8.86831C34.9458 9.4683 34.9121 10.22 34.8447 11.1233C34.7773 12.0267 34.7436 12.7784 34.7436 13.3784Z" fill="white"/>
<path d="M42.0547 18.7176C41.475 18.7176 40.8649 18.6502 40.2244 18.5153L40.2143 22.6411C40.2143 23.0321 40.0828 23.3557 39.8199 23.6119C39.557 23.8681 39.2233 23.9962 38.8188 23.9962C38.4143 23.9962 38.0806 23.8681 37.8177 23.6119C37.5548 23.3557 37.4233 23.0321 37.4233 22.6411C37.4233 22.3243 37.4301 21.067 37.4436 18.8693C37.457 17.2378 37.457 15.9064 37.4436 14.875C37.4233 13.4188 37.3761 12.1649 37.302 11.1132C37.2009 9.6638 37.1503 8.99977 37.1503 9.12112C37.1503 8.56158 37.275 8.08293 37.5245 7.68518C37.8143 7.23351 38.2053 7.00767 38.6975 7.00767C39.075 7.00767 39.3918 7.13576 39.648 7.39193C39.9042 7.64811 40.0323 7.95484 40.0323 8.31214L40.0222 8.41326C40.4738 8.15709 40.9255 7.96833 41.3772 7.84698C41.8356 7.71889 42.294 7.65485 42.7525 7.65485C44.303 7.65485 45.4356 8.31214 46.1502 9.62673C46.6827 10.6177 46.949 11.902 46.949 13.4795C46.949 14.9559 46.5277 16.1794 45.685 17.1502C44.7816 18.1951 43.5716 18.7176 42.0547 18.7176ZM42.7525 10.3548C42.3278 10.3548 41.8963 10.4559 41.4581 10.6582C41.0199 10.8537 40.5783 11.1503 40.1334 11.548C40.2143 12.9368 40.2548 14.3289 40.2548 15.7244C40.8547 15.9199 41.4547 16.0176 42.0547 16.0176C42.7491 16.0176 43.2817 15.7716 43.6524 15.2794C43.9895 14.8345 44.1581 14.2345 44.1581 13.4795C44.1581 12.5694 44.1176 11.939 44.0367 11.5885C43.8412 10.766 43.4131 10.3548 42.7525 10.3548Z" fill="white"/>
<path d="M53.1377 18.7176C52.5579 18.7176 51.9478 18.6502 51.3074 18.5153L51.2973 22.6411C51.2973 23.0321 51.1658 23.3557 50.9029 23.6119C50.64 23.8681 50.3063 23.9962 49.9018 23.9962C49.4973 23.9962 49.1636 23.8681 48.9007 23.6119C48.6378 23.3557 48.5063 23.0321 48.5063 22.6411C48.5063 22.3243 48.513 21.067 48.5265 18.8693C48.54 17.2378 48.54 15.9064 48.5265 14.875C48.5063 13.4188 48.4591 12.1649 48.385 11.1132C48.2838 9.6638 48.2333 8.99977 48.2333 9.12112C48.2333 8.56158 48.358 8.08293 48.6074 7.68518C48.8973 7.23351 49.2883 7.00767 49.7804 7.00767C50.158 7.00767 50.4748 7.13576 50.731 7.39193C50.9872 7.64811 51.1152 7.95484 51.1152 8.31214L51.1051 8.41326C51.5568 8.15709 52.0085 7.96833 52.4602 7.84698C52.9186 7.71889 53.377 7.65485 53.8354 7.65485C55.386 7.65485 56.5185 8.31214 57.2331 9.62673C57.7657 10.6177 58.032 11.902 58.032 13.4795C58.032 14.9559 57.6107 16.1794 56.768 17.1502C55.8646 18.1951 54.6545 18.7176 53.1377 18.7176ZM53.8354 10.3548C53.4107 10.3548 52.9793 10.4559 52.5411 10.6582C52.1029 10.8537 51.6613 11.1503 51.2164 11.548C51.2973 12.9368 51.3377 14.3289 51.3377 15.7244C51.9377 15.9199 52.5377 16.0176 53.1377 16.0176C53.8321 16.0176 54.3646 15.7716 54.7354 15.2794C55.0725 14.8345 55.241 14.2345 55.241 13.4795C55.241 12.5694 55.2006 11.939 55.1197 11.5885C54.9242 10.766 54.4961 10.3548 53.8354 10.3548Z" fill="white"/>
<path d="M63.715 18.7176C62.4679 18.7176 61.396 18.2895 60.4994 17.4333C59.5151 16.4963 58.9994 15.2457 58.9522 13.6817C58.905 12.1919 59.3129 10.8638 60.1758 9.69751C61.2005 8.32225 62.6263 7.63462 64.4532 7.63462C65.8015 7.63462 66.8734 8.17394 67.6689 9.25258C68.3835 10.2233 68.7408 11.4267 68.7408 12.8626C68.7408 14.4267 68.3228 15.7615 67.4869 16.8671C66.5498 18.1007 65.2925 18.7176 63.715 18.7176ZM64.3218 10.3042C63.4926 10.2975 62.8387 10.675 62.36 11.4368C61.9555 12.0772 61.7533 12.8256 61.7533 13.6817C61.7533 14.4907 61.9825 15.1109 62.4409 15.5424C62.8049 15.8862 63.2297 16.0581 63.715 16.0581C64.3016 16.0581 64.8105 15.8592 65.242 15.4615C65.7341 14.9963 65.997 14.366 66.0307 13.5705C66.1184 11.3997 65.5487 10.311 64.3218 10.3042Z" fill="white"/>
</g>
<g id="stack">
<path d="M81.1524 10.7189C80.485 10.7189 80.0839 10.4391 79.9491 9.87954C79.6794 9.83235 79.403 9.80876 79.1199 9.80876C77.4952 9.80876 76.6828 10.0312 76.6828 10.4762C76.6828 10.7391 77.1716 11.093 78.1491 11.5379C79.4839 12.1514 80.3873 12.6301 80.8592 12.9739C81.8367 13.6817 82.3254 14.4806 82.3254 15.3705C82.3254 16.53 81.7861 17.4098 80.7075 18.0098C79.8378 18.4884 78.7693 18.7277 77.5019 18.7277C76.6053 18.7277 75.7862 18.5895 75.0447 18.3131C74.0334 17.9356 73.5278 17.3794 73.5278 16.6446C73.5278 15.9705 73.9289 15.6334 74.7312 15.6334C75.0413 15.6334 75.4896 15.7311 76.0761 15.9266C76.6626 16.1221 77.1143 16.2199 77.4311 16.2199C78.7997 16.2199 79.4873 15.9435 79.494 15.3907C79.494 15.0469 79.0188 14.666 78.0682 14.248C76.6795 13.6345 75.7896 13.193 75.3986 12.9233C74.448 12.2559 73.9728 11.4436 73.9728 10.4863C73.9728 9.13124 74.6907 8.21777 76.1267 7.74587C76.9694 7.46947 78.2502 7.33127 79.9693 7.33127C80.6434 7.33127 81.1423 7.41891 81.4659 7.59419C81.9108 7.83014 82.1333 8.26496 82.1333 8.89866C82.1333 10.1121 81.8064 10.7189 81.1524 10.7189Z" fill="white"/>
<path d="M91.2646 9.98067C91.1231 9.98067 90.9545 9.9773 90.759 9.97055C90.5703 9.95707 90.4051 9.95033 90.2635 9.95033C89.9871 9.95033 89.6669 9.9773 89.3029 10.0312C89.4242 12.7548 89.4849 14.5345 89.4849 15.3705C89.4849 15.4581 89.4883 15.6233 89.495 15.866C89.5017 16.1019 89.5051 16.294 89.5051 16.4424C89.5051 17.9929 89.0163 18.7682 88.0388 18.7682C87.6681 18.7682 87.3478 18.6536 87.0782 18.4244C86.7816 18.1817 86.6332 17.8783 86.6332 17.5143C86.6332 17.2716 86.6434 16.9075 86.6636 16.4221C86.6838 15.9368 86.6939 15.5727 86.6939 15.33C86.6939 14.5143 86.6332 12.7683 86.5119 10.0919C86.0939 10.0717 85.4602 10.0177 84.6108 9.93011C83.7681 9.83573 83.3468 9.39753 83.3468 8.61552C83.3468 8.238 83.4749 7.91778 83.731 7.65486C83.9872 7.39194 84.3175 7.26049 84.722 7.26049C84.9715 7.26049 85.5445 7.30093 86.4411 7.38183C86.4344 7.16611 86.4175 6.80881 86.3905 6.30994C86.3636 5.87849 86.3501 5.54478 86.3501 5.30883C86.3501 4.93131 86.4883 4.61783 86.7647 4.3684C87.0411 4.11896 87.3748 3.99425 87.7658 3.99425C88.7635 3.99425 89.2624 4.83356 89.2624 6.51218L89.2422 7.34138C89.6602 7.28071 90.0006 7.25037 90.2635 7.25037C91.0388 7.25037 91.568 7.30093 91.8511 7.40206C92.3905 7.59082 92.6601 8.00205 92.6601 8.63574C92.6601 9.02001 92.5287 9.34023 92.2657 9.5964C92.0028 9.85258 91.6691 9.98067 91.2646 9.98067Z" fill="white"/>
<path d="M102.621 18.7884C102.311 18.7884 101.818 18.4513 101.144 17.7772C100.524 18.0738 99.978 18.2963 99.5061 18.4446C99.0342 18.5996 98.633 18.6772 98.3027 18.6772C96.678 18.6772 95.4578 18.2423 94.6421 17.3727C93.8331 16.503 93.4286 15.2019 93.4286 13.4694C93.4286 11.8447 94.0286 10.4559 95.2286 9.30315C96.4286 8.14362 97.8645 7.56385 99.5364 7.56385C100.177 7.56385 100.918 7.74587 101.761 8.10991C102.779 8.54811 103.288 9.05709 103.288 9.63685C103.288 9.87954 103.211 10.0919 103.055 10.2739C102.988 10.5436 102.934 10.884 102.894 11.2953C102.86 11.6997 102.843 12.175 102.843 12.7211C102.843 14.0087 102.934 14.9356 103.116 15.5019C103.136 15.5626 103.291 15.9132 103.581 16.5536C103.844 17.1334 103.976 17.4637 103.976 17.5446C103.976 17.9019 103.837 18.1985 103.561 18.4345C103.291 18.6704 102.978 18.7884 102.621 18.7884ZM100.113 11.8514C100.113 11.6357 100.126 11.3896 100.153 11.1132C100.187 10.8301 100.234 10.5166 100.295 10.1728C100.16 10.1054 100.039 10.0582 99.9308 10.0312C99.8297 9.99752 99.742 9.98067 99.6679 9.98067C98.751 9.98067 97.9488 10.3413 97.2612 11.0627C96.5735 11.7773 96.2297 12.6065 96.2297 13.5503C96.2297 14.4536 96.3915 15.1345 96.7151 15.5929C97.0387 16.0446 97.5241 16.2705 98.1713 16.2705C98.5892 16.2705 98.9836 16.203 99.3544 16.0682C99.7319 15.9266 100.086 15.721 100.416 15.4514C100.214 13.8469 100.113 12.6469 100.113 11.8514Z" fill="white"/>
<path d="M110.053 18.7581C108.57 18.7581 107.326 18.3367 106.322 17.494C105.263 16.6042 104.734 15.4311 104.734 13.975C104.734 12.6334 105.209 11.2481 106.16 9.81887C107.239 8.18744 108.492 7.37172 109.922 7.37172C110.623 7.37172 111.442 7.56048 112.379 7.938C113.518 8.40316 114.088 8.93911 114.088 9.54584C114.088 9.87617 113.973 10.1694 113.744 10.4256C113.501 10.702 113.188 10.8402 112.804 10.8402C112.514 10.8402 112.163 10.6852 111.752 10.375C111.347 10.0582 110.737 9.89977 109.922 9.89977C109.403 9.89977 108.84 10.4087 108.233 11.4267C107.653 12.411 107.363 13.2604 107.363 13.975C107.363 14.6828 107.619 15.239 108.132 15.6435C108.617 16.0278 109.258 16.2199 110.053 16.2199C110.505 16.2199 111.058 16.048 111.711 15.7042C112.365 15.3604 112.78 15.1884 112.955 15.1884C113.319 15.1884 113.629 15.3199 113.886 15.5828C114.149 15.8457 114.28 16.1457 114.28 16.4828C114.28 17.0086 113.707 17.5345 112.561 18.0603C111.536 18.5255 110.7 18.7581 110.053 18.7581Z" fill="white"/>
<path d="M124.544 18.5356C124.011 18.5356 123.607 18.2794 123.33 17.7671C123 17.1536 122.505 16.4289 121.844 15.5929C120.819 14.2918 120.277 13.6008 120.216 13.5199C119.677 13.9177 119.232 14.221 118.881 14.43C118.814 15.3671 118.78 16.2637 118.78 17.1199C118.78 17.5109 118.648 17.8345 118.386 18.0907C118.123 18.3468 117.789 18.4749 117.384 18.4749C116.434 18.4749 115.959 17.9086 115.959 16.7761C115.959 16.2435 115.996 15.448 116.07 14.3896C116.151 13.3244 116.191 12.5256 116.191 11.993C116.191 11.0155 116.205 9.89977 116.232 8.64586C116.265 7.3852 116.282 6.27286 116.282 5.30883C116.282 5.01895 116.265 4.6785 116.232 4.2875C116.205 3.88975 116.191 3.54594 116.191 3.25606C116.191 2.86505 116.323 2.54483 116.586 2.2954C116.848 2.03922 117.182 1.91113 117.587 1.91113C117.991 1.91113 118.325 2.03922 118.588 2.2954C118.851 2.54483 118.982 2.86505 118.982 3.25606C118.982 3.55268 118.999 3.90324 119.033 4.30772C119.066 4.71221 119.083 5.06277 119.083 5.35939C119.083 6.16163 119.063 7.11217 119.023 8.21103C118.982 9.2627 118.965 10.1998 118.972 11.0222C119.889 10.3144 121.284 9.02675 123.159 7.15936C123.455 6.86274 123.792 6.71443 124.17 6.71443C124.547 6.71443 124.881 6.85263 125.171 7.12903C125.461 7.40543 125.606 7.72565 125.606 8.08969C125.606 8.39979 125.474 8.69979 125.211 8.98967C124.416 9.87954 123.469 10.8099 122.37 11.7806L124.473 14.4907C125.491 15.8457 126 16.7491 126 17.2008C126 17.5716 125.852 17.885 125.555 18.1412C125.258 18.4041 124.921 18.5356 124.544 18.5356Z" fill="white"/>
</g>
</g>
<g id="Group 352">
<path id="Vector" d="M9.40196 6.41946H5.0758C4.38321 6.41946 3.81982 5.85607 3.81982 5.16348C3.81982 4.47088 4.38321 3.90749 5.0758 3.90749H11.211C11.5986 3.90749 11.9088 3.59738 11.9088 3.20973C11.9088 2.82208 11.5986 2.51196 11.211 2.51196H8.69902C8.00642 2.51196 7.44304 1.94858 7.44304 1.25598C7.44304 0.563382 8.00642 0 8.69902 0H12.0586C13.0407 0 13.9917 0.351468 14.7463 0.987211L27.0425 11.4072C27.3268 11.645 27.3216 12.0791 27.0374 12.3169L14.736 22.4836C13.9917 23.0987 13.0562 23.4346 12.0897 23.4346H7.02955C6.33695 23.4346 5.77357 22.8712 5.77357 22.1786C5.77357 21.486 6.33695 20.9227 7.02955 20.9227H11.0766C11.5366 20.9227 11.9139 20.5505 11.9139 20.0853C11.9139 19.6253 11.5418 19.248 11.0766 19.248H8.56464C7.94957 19.248 7.44821 18.7467 7.44821 18.1316C7.44821 17.5165 7.94957 17.0152 8.56464 17.0152H12.4721C13.0872 17.0152 13.5886 16.5138 13.5886 15.8987C13.5886 15.2837 13.0872 14.7823 12.4721 14.7823H11.3557C10.7406 14.7823 10.2393 14.281 10.2393 13.6659C10.2393 13.0508 10.7406 12.5495 11.3557 12.5495H14.1468C14.6068 12.5495 14.9841 12.1773 14.9841 11.7121C14.9841 11.247 14.612 10.8748 14.1468 10.8748H7.45338C6.83831 10.8748 6.33695 10.3735 6.33695 9.7584C6.33695 9.14333 6.83831 8.64197 7.45338 8.64197H9.40713C10.0222 8.64197 10.5236 8.14061 10.5236 7.52554C10.5184 6.92081 10.0222 6.41946 9.40196 6.41946Z" fill="white"/>
<path id="Vector_2" d="M1.73157 6.34179C2.42522 6.34179 2.98755 5.77947 2.98755 5.08581C2.98755 4.39216 2.42522 3.82983 1.73157 3.82983C1.03791 3.82983 0.475586 4.39216 0.475586 5.08581C0.475586 5.77947 1.03791 6.34179 1.73157 6.34179Z" fill="white"/>
<path id="Vector_3" d="M5.08069 19.2532C5.77435 19.2532 6.33667 18.6908 6.33667 17.9972C6.33667 17.3035 5.77435 16.7412 5.08069 16.7412C4.38703 16.7412 3.82471 17.3035 3.82471 17.9972C3.82471 18.6908 4.38703 19.2532 5.08069 19.2532Z" fill="white"/>
<path id="Vector_4" d="M1.11643 8.61084H4.46571C5.08078 8.61084 5.58213 9.1122 5.58213 9.72727C5.58213 10.3423 5.08078 10.8437 4.46571 10.8437H1.11643C0.501359 10.8437 0 10.3423 0 9.72727C0 9.1122 0.49619 8.61084 1.11643 8.61084Z" fill="white"/>
<path id="Vector_5" d="M4.38303 12.5547H8.29052C8.90559 12.5547 9.40695 13.056 9.40695 13.6711C9.40695 14.2862 8.90559 14.7875 8.29052 14.7875H4.38303C3.76796 14.7875 3.2666 14.2862 3.2666 13.6711C3.2666 13.056 3.76796 12.5547 4.38303 12.5547Z" fill="white"/>
</g>
</g>
</svg>
