<svg width="102" height="102" viewBox="0 0 102 102" fill="none" xmlns="http://www.w3.org/2000/svg">
<path d="M77.2083 80.0417H24.7917C21.6608 80.0417 19.125 77.5058 19.125 74.375V31.875H82.875V74.375C82.875 77.5058 80.3392 80.0417 77.2083 80.0417Z" fill="#F3F3F1"/>
<path d="M82.875 31.8752H19.125V27.6252C19.125 24.4943 21.6608 21.9585 24.7917 21.9585H77.2083C80.3392 21.9585 82.875 24.4943 82.875 27.6252V31.8752Z" fill="#4E7FB9"/>
<path d="M26.2083 74.375V31.875H19.125V74.375C19.125 77.5058 21.6608 80.0417 24.7917 80.0417H31.875C28.7442 80.0417 26.2083 77.5058 26.2083 74.375Z" fill="#D5DBE1"/>
<path d="M31.1667 21.9585H24.7917C21.6608 21.9585 19.125 24.4943 19.125 27.6252V31.8752H25.5V27.6252C25.5 24.4943 28.0358 21.9585 31.1667 21.9585Z" fill="#33557E"/>
<path d="M77.1419 82.2552H24.7253C20.4271 82.2552 16.9336 78.7617 16.9336 74.4635V27.7135C16.9336 23.4154 20.4271 19.9219 24.7253 19.9219H77.1419C81.4401 19.9219 84.9336 23.4154 84.9336 27.7135V74.4635C84.9336 78.7617 81.4401 82.2552 77.1419 82.2552ZM24.7253 24.1719C22.7731 24.1719 21.1836 25.7614 21.1836 27.7135V74.4635C21.1836 76.4157 22.7731 78.0052 24.7253 78.0052H77.1419C79.0941 78.0052 80.6836 76.4157 80.6836 74.4635V27.7135C80.6836 25.7614 79.0941 24.1719 77.1419 24.1719H24.7253Z" fill="black"/>
<path d="M19.125 29.75H82.875V34H19.125V29.75Z" fill="black"/>
<path d="M6.15847 78H93.1585L89.9999 82H9.1585L6.15847 78Z" fill="black"/>
<path d="M33.5 64.5H45.75V68H33.5V64.5ZM33.5 52.25H49.25V55.75H33.5V52.25ZM33.5 40H68.5V43.5H33.5V40ZM66.1795 55.7937L68.2025 55.1095L69.9525 58.1405L68.3495 59.5492C68.5513 60.5059 68.5513 61.4941 68.3495 62.4508L69.9525 63.8595L68.2025 66.8905L66.1795 66.2063C65.462 66.8538 64.608 67.3525 63.6683 67.6588L63.25 69.75H59.75L59.33 67.657C58.4012 67.3535 57.5463 66.8587 56.8205 66.2045L54.7975 66.8905L53.0475 63.8595L54.6505 62.4508C54.4487 61.4941 54.4487 60.5059 54.6505 59.5492L53.0475 58.1405L54.7975 55.1095L56.8205 55.7937C57.538 55.1462 58.392 54.6475 59.3317 54.3412L59.75 52.25H63.25L63.67 54.343C64.608 54.6475 65.462 55.148 66.1795 55.7955V55.7937ZM61.5 62.75C61.9641 62.75 62.4092 62.5656 62.7374 62.2374C63.0656 61.9092 63.25 61.4641 63.25 61C63.25 60.5359 63.0656 60.0908 62.7374 59.7626C62.4092 59.4344 61.9641 59.25 61.5 59.25C61.0359 59.25 60.5908 59.4344 60.2626 59.7626C59.9344 60.0908 59.75 60.5359 59.75 61C59.75 61.4641 59.9344 61.9092 60.2626 62.2374C60.5908 62.5656 61.0359 62.75 61.5 62.75Z" fill="black"/>
</svg>
