<svg width="100" height="100" viewBox="0 0 100 100" fill="none" xmlns="http://www.w3.org/2000/svg">
<path d="M49.6666 43.6946C56.1867 43.6946 61.4722 38.4091 61.4722 31.8891C61.4722 25.369 56.1867 20.0835 49.6666 20.0835C43.1466 20.0835 37.8611 25.369 37.8611 31.8891C37.8611 38.4091 43.1466 43.6946 49.6666 43.6946Z" fill="#F3F3F1"/>
<path d="M44.1111 31.8891C44.1111 26.4585 47.8 21.9307 52.7916 20.5557C51.7889 20.2779 50.7555 20.0835 49.6666 20.0835C43.1472 20.0835 37.8611 25.3696 37.8611 31.8891C37.8611 38.4085 43.1472 43.6946 49.6666 43.6946C50.7555 43.6946 51.7889 43.5002 52.7916 43.2224C47.8 41.8474 44.1111 37.3196 44.1111 31.8891Z" fill="#D5DBE1"/>
<path d="M64.6389 53.4167H61.4722H41.0278H37.8611C31.725 53.4167 26.75 58.3917 26.75 64.5279V74.2501H50.0555H52.4444H75.75V64.5279C75.75 58.3917 70.775 53.4167 64.6389 53.4167Z" fill="#F3F3F1"/>
<path d="M44.1111 53.4167H41.0278H37.8611C31.725 53.4167 26.75 58.3917 26.75 64.5279V74.2501H33V64.5279C33 58.3917 37.975 53.4167 44.1111 53.4167Z" fill="#D5DBE1"/>
<path d="M49.6667 45.7778C42.0084 45.7778 35.7778 39.5472 35.7778 31.8889C35.7778 24.2306 42.0084 18 49.6667 18C57.3251 18 63.5556 24.2306 63.5556 31.8889C63.5556 39.5472 57.3251 45.7778 49.6667 45.7778ZM49.6667 22.1667C44.3056 22.1667 39.9445 26.5278 39.9445 31.8889C39.9445 37.25 44.3056 41.6111 49.6667 41.6111C55.0278 41.6111 59.3889 37.25 59.3889 31.8889C59.3889 26.5278 55.0278 22.1667 49.6667 22.1667Z" fill="#303030"/>
<path d="M52.4443 76.3335H26.7498C25.5998 76.3335 24.6665 75.4002 24.6665 74.2502V64.5279C24.6665 57.2529 30.5859 51.3335 37.8609 51.3335H61.472V55.5002H37.8609C32.8832 55.5002 28.8332 59.5502 28.8332 64.5279V72.1668H52.4443V76.3335Z" fill="#303030"/>
<path d="M71.8889 77.028C76.1077 77.028 79.5278 73.608 79.5278 69.3891C79.5278 65.1703 76.1077 61.7502 71.8889 61.7502C67.67 61.7502 64.25 65.1703 64.25 69.3891C64.25 73.608 67.67 77.028 71.8889 77.028Z" fill="#4E7FB9"/>
<path d="M70.5 69.3891C70.5 66.2864 72.3583 63.628 75.0139 62.4336C74.0583 62.003 73.0056 61.7502 71.8889 61.7502C67.6694 61.7502 64.25 65.1697 64.25 69.3891C64.25 73.6086 67.6694 77.028 71.8889 77.028C73.0056 77.028 74.0583 76.7752 75.0139 76.3447C72.3583 75.1502 70.5 72.4919 70.5 69.3891Z" fill="#33557E"/>
<path d="M71.889 79.1112C66.5279 79.1112 62.1667 74.7501 62.1667 69.389C62.1667 64.0279 66.5279 59.6667 71.889 59.6667C77.2501 59.6667 81.6112 64.0279 81.6112 69.389C81.6112 74.7501 77.2501 79.1112 71.889 79.1112ZM71.889 63.8334C68.8251 63.8334 66.3334 66.3251 66.3334 69.389C66.3334 72.4529 68.8251 74.9445 71.889 74.9445C74.9529 74.9445 77.4445 72.4529 77.4445 69.389C77.4445 66.3251 74.9529 63.8334 71.889 63.8334Z" fill="#303030"/>
<path d="M69.8057 77.0278H73.9723V82.5834H69.8057V77.0278Z" fill="#303030"/>
<path d="M69.8057 56.1946H73.9723V61.7501H69.8057V56.1946Z" fill="#303030"/>
<path d="M77.4446 63.8364L82.2509 61.0614L84.3342 64.6698L79.5279 67.4447L77.4446 63.8364Z" fill="#303030"/>
<path d="M59.4048 74.2195L64.2111 71.4445L66.2944 75.0528L61.4881 77.8278L59.4048 74.2195Z" fill="#303030"/>
<path d="M59.4192 64.5701L61.5025 60.9617L66.3088 63.7367L64.2255 67.3451L59.4192 64.5701Z" fill="#303030"/>
<path d="M77.4412 74.9497L79.5245 71.3414L84.3308 74.1164L82.2475 77.7247L77.4412 74.9497Z" fill="#303030"/>
</svg>
