<svg width="100" height="100" viewBox="0 0 100 100" fill="none" xmlns="http://www.w3.org/2000/svg">
<path d="M48.9742 46.5116C56.4638 46.5116 62.5353 40.4401 62.5353 32.9505C62.5353 25.4609 56.4638 19.3894 48.9742 19.3894C41.4846 19.3894 35.4131 25.4609 35.4131 32.9505C35.4131 40.4401 41.4846 46.5116 48.9742 46.5116Z" fill="#F3F3F1"/>
<path d="M42.5925 32.9505C42.5925 26.7124 46.83 21.5113 52.5639 19.9318C51.412 19.6127 50.225 19.3894 48.9742 19.3894C41.4853 19.3894 35.4131 25.4616 35.4131 32.9505C35.4131 40.4394 41.4853 46.5116 48.9742 46.5116C50.225 46.5116 51.412 46.2883 52.5639 45.9692C46.83 44.3897 42.5925 39.1886 42.5925 32.9505Z" fill="#D5DBE1"/>
<path d="M66.1731 57.6793H62.5355H39.0509H35.4133C28.3647 57.6793 22.6499 63.3941 22.6499 70.4427V81.6107H49.4211H52.1653H78.9365V70.4427C78.9365 63.3941 73.2217 57.6793 66.1731 57.6793Z" fill="#F3F3F1"/>
<path d="M42.5927 57.6793H39.0509H35.4133C28.3647 57.6793 22.6499 63.3941 22.6499 70.4427V81.6107H29.8293V70.4427C29.8293 63.3941 35.5441 57.6793 42.5927 57.6793Z" fill="#D5DBE1"/>
<path d="M48.9743 48.9044C40.1771 48.9044 33.02 41.7474 33.02 32.9502C33.02 24.153 40.1771 16.9959 48.9743 16.9959C57.7714 16.9959 64.9285 24.153 64.9285 32.9502C64.9285 41.7474 57.7714 48.9044 48.9743 48.9044ZM48.9743 21.7822C42.8159 21.7822 37.8063 26.7919 37.8063 32.9502C37.8063 39.1085 42.8159 44.1182 48.9743 44.1182C55.1326 44.1182 60.1422 39.1085 60.1422 32.9502C60.1422 26.7919 55.1326 21.7822 48.9743 21.7822Z" fill="#303030"/>
<path d="M52.1648 84.0039H22.6495C21.3285 84.0039 20.2563 82.9318 20.2563 81.6108V70.4428C20.2563 62.086 27.056 55.2863 35.4129 55.2863H62.5351V60.0725H35.4129C29.6949 60.0725 25.0426 64.7248 25.0426 70.4428V79.2176H52.1648V84.0039Z" fill="#303030"/>
<path d="M47.0915 84.0039H76.6069C77.9279 84.0039 79 82.9318 79 81.6108V70.4428C79 62.086 72.2003 55.2863 63.8435 55.2863H36.7213V60.0725H63.8435C69.5615 60.0725 74.2137 64.7248 74.2137 70.4428V79.2176H47.0915V84.0039Z" fill="#303030"/>
</svg>
