<svg width="102" height="102" viewBox="0 0 102 102" fill="none" xmlns="http://www.w3.org/2000/svg">
<g id="upload 2">
<g id="Group">
<path id="Vector" d="M77.2083 80.0417H24.7917C21.6608 80.0417 19.125 77.5058 19.125 74.375V31.875H82.875V74.375C82.875 77.5058 80.3392 80.0417 77.2083 80.0417Z" fill="#F3F3F1"/>
</g>
<g id="Group_2">
<path id="Vector_2" d="M82.875 31.875H19.125V27.625C19.125 24.4942 21.6608 21.9584 24.7917 21.9584H77.2083C80.3392 21.9584 82.875 24.4942 82.875 27.625V31.875Z" fill="#4E7FB9"/>
</g>
<g id="Group_3">
<path id="Vector_3" d="M26.2083 74.375V31.875H19.125V74.375C19.125 77.5058 21.6608 80.0417 24.7917 80.0417H31.875C28.7442 80.0417 26.2083 77.5058 26.2083 74.375Z" fill="#D5DBE1"/>
</g>
<g id="Group_4">
<path id="Vector_4" d="M31.1667 21.9584H24.7917C21.6608 21.9584 19.125 24.4942 19.125 27.625V31.875H25.5V27.625C25.5 24.4942 28.0358 21.9584 31.1667 21.9584Z" fill="#33557E"/>
</g>
<g id="Group_5">
<path id="Vector_5" d="M77.1419 82.2552H24.7253C20.4271 82.2552 16.9336 78.7617 16.9336 74.4636V27.7136C16.9336 23.4154 20.4271 19.9219 24.7253 19.9219H77.1419C81.4401 19.9219 84.9336 23.4154 84.9336 27.7136V74.4636C84.9336 78.7617 81.4401 82.2552 77.1419 82.2552ZM24.7253 24.1719C22.7731 24.1719 21.1836 25.7614 21.1836 27.7136V74.4636C21.1836 76.4157 22.7731 78.0052 24.7253 78.0052H77.1419C79.0941 78.0052 80.6836 76.4157 80.6836 74.4636V27.7136C80.6836 25.7614 79.0941 24.1719 77.1419 24.1719H24.7253Z" fill="black"/>
</g>
<g id="Group_6">
<path id="Vector_6" d="M19.125 29.75H82.875V34H19.125V29.75Z" fill="black"/>
</g>
<g id="Group_7">
<path id="Vector_7" d="M6.15871 78.0001H93.1588L90.0001 82.0001H9.15874L6.15871 78.0001Z" fill="black"/>
</g>
</g>
</svg>
