<svg width="96" height="96" viewBox="0 0 96 96" fill="none" xmlns="http://www.w3.org/2000/svg">
<path d="M32 78.0001C39.732 78.0001 46 71.7321 46 64.0001C46 56.2681 39.732 50.0001 32 50.0001C24.268 50.0001 18 56.2681 18 64.0001C18 71.7321 24.268 78.0001 32 78.0001Z" fill="#4E7FB9"/>
<path d="M69.3333 24.6667C71.1743 24.6667 72.6667 23.1743 72.6667 21.3333C72.6667 19.4924 71.1743 18 69.3333 18C67.4924 18 66 19.4924 66 21.3333C66 23.1743 67.4924 24.6667 69.3333 24.6667Z" fill="#F3F3F1"/>
<path d="M60.6665 38.0001V35.7787C60.6665 33.3254 62.8825 31.3334 65.6185 31.3334H73.0478C75.7838 31.3334 77.9998 33.3227 77.9998 35.7787V38.0001H60.6665Z" fill="#F3F3F1"/>
<path d="M24 64.0001C24 57.3014 28.712 51.7148 35 50.3388C34.032 50.1281 33.032 50.0001 32 50.0001C24.2693 50.0001 18 56.2668 18 64.0001C18 71.7308 24.2693 78.0001 32 78.0001C33.032 78.0001 34.032 77.8721 35 77.6588C28.712 76.2854 24 70.6988 24 64.0001Z" fill="#33557E"/>
<path d="M72 21.3333C72 20.8267 72.1307 20.36 72.3333 19.9307C71.8 18.7973 70.6667 18 69.3333 18C67.4933 18 66 19.4933 66 21.3333C66 23.1733 67.4933 24.6667 69.3333 24.6667C70.6667 24.6667 71.8 23.8693 72.3333 22.736C72.1307 22.3067 72 21.84 72 21.3333Z" fill="#D5DBE1"/>
<path d="M71.6185 31.3334H65.6185C62.8825 31.3334 60.6665 33.3227 60.6665 35.7787V38.0001H66.6665V35.7787C66.6665 33.3227 68.8825 31.3334 71.6185 31.3334Z" fill="#D5DBE1"/>
<path d="M32 80C23.176 80 16 72.824 16 64C16 55.176 23.176 48 32 48C40.824 48 48 55.176 48 64C48 72.824 40.824 80 32 80ZM32 52C25.384 52 20 57.384 20 64C20 70.616 25.384 76 32 76C38.616 76 44 70.616 44 64C44 57.384 38.616 52 32 52Z" fill="#303030"/>
<path d="M69.3333 26.6666C66.392 26.6666 64 24.2746 64 21.3332C64 18.3919 66.392 15.9999 69.3333 15.9999C72.2747 15.9999 74.6667 18.3919 74.6667 21.3332C74.6667 24.2746 72.2747 26.6666 69.3333 26.6666ZM69.3333 19.9999C68.5973 19.9999 68 20.5972 68 21.3332C68 22.0692 68.5973 22.6666 69.3333 22.6666C70.0693 22.6666 70.6667 22.0692 70.6667 21.3332C70.6667 20.5972 70.0693 19.9999 69.3333 19.9999Z" fill="#303030"/>
<path d="M79.9998 40H75.9998V35.7786C75.9998 34.432 74.6745 33.3333 73.0478 33.3333H65.6185C63.9918 33.3333 62.6665 34.4293 62.6665 35.7786V40H58.6665V35.7786C58.6665 32.224 61.7838 29.3333 65.6185 29.3333H73.0478C76.8825 29.3333 79.9998 32.224 79.9998 35.7786V40Z" fill="#303030"/>
<path d="M59.1144 80.8213L53.8131 74.6373C53.1704 73.888 53.1704 72.784 53.8131 72.032L59.1144 65.848L62.1517 68.4507L57.965 73.336L62.1517 78.2213L59.1144 80.8213Z" fill="#303030"/>
<path d="M64.6665 75.3333H54.6665V71.3333H64.6665C66.5038 71.3333 67.9998 69.8373 67.9998 68V48.6667H71.9998V68C71.9998 72.0453 68.7118 75.3333 64.6665 75.3333Z" fill="#303030"/>
<path d="M44.8855 30.1547L41.8481 27.552L46.0348 22.6667L41.8481 17.7813L44.8855 15.1787L50.1868 21.3627C50.8295 22.112 50.8295 23.216 50.1868 23.968L44.8855 30.1547Z" fill="#303030"/>
<path d="M28 40.0001H24V28.0001C24 23.9548 27.288 20.6668 31.3333 20.6668H49.3333V24.6668H31.3333C29.496 24.6668 28 26.1628 28 28.0001V40.0001Z" fill="#303030"/>
<path d="M26.3951 64.074C26.2963 63.9368 26.2058 63.7396 26.1235 63.4823C26.0412 63.2251 26 62.9507 26 62.6592C26 62.1104 26.1152 61.7245 26.3457 61.5016C26.5926 61.2615 26.8889 61.1415 27.2346 61.1415H37.6049C37.6872 61.2958 37.7695 61.5016 37.8519 61.7588C37.9506 62.0161 38 62.2905 38 62.582C38 63.1136 37.8765 63.4995 37.6296 63.7396C37.3992 63.9625 37.1111 64.074 36.7654 64.074H35.2593C35.177 64.9657 34.8642 65.746 34.321 66.4148C33.7778 67.0665 32.9959 67.5381 31.9753 67.8296L35.5556 70.3505C35.5556 71.1222 35.3663 71.7567 34.9877 72.254C34.6255 72.7513 34.0741 73 33.3333 73C32.9053 73 32.5103 72.88 32.1481 72.6399C31.8025 72.3998 31.465 72.1254 31.1358 71.8167L27.0123 67.881C26.8971 67.6238 26.8395 67.3237 26.8395 66.9807C26.8395 66.2947 27.1029 65.7803 27.6296 65.4373H29.0864C29.6132 65.4373 30.0247 65.3173 30.321 65.0772C30.6337 64.8199 30.856 64.4855 30.9877 64.074H26.3951ZM26.3951 59.9325C26.2963 59.7781 26.2058 59.5723 26.1235 59.3151C26.0412 59.0579 26 58.7835 26 58.492C26 57.9603 26.1152 57.5831 26.3457 57.3601C26.5926 57.12 26.8889 57 27.2346 57H37.6049C37.6872 57.1372 37.7695 57.343 37.8519 57.6174C37.9506 57.8746 38 58.1404 38 58.4148C38 58.9636 37.8765 59.358 37.6296 59.5981C37.3992 59.821 37.1111 59.9325 36.7654 59.9325H26.3951Z" fill="#DCECFF"/>
</svg>
